<svg xmlns="http://www.w3.org/2000/svg" width="48.75" height="35.455" viewBox="0 0 48.75 35.455">
  <path id="cloud_24dp_E3E3E3_FILL0_wght400_GRAD0_opsz24" d="M52.188-764.545a11.882,11.882,0,0,1-8.614-3.49A11.469,11.469,0,0,1,40-776.567a12.28,12.28,0,0,1,2.6-7.7,11.515,11.515,0,0,1,6.814-4.321,15.039,15.039,0,0,1,5.54-8.254A15.161,15.161,0,0,1,64.375-800a14.965,14.965,0,0,1,11,4.515,14.965,14.965,0,0,1,4.515,11,9.672,9.672,0,0,1,6.343,3.3,9.764,9.764,0,0,1,2.521,6.675,9.617,9.617,0,0,1-2.908,7.063,9.616,9.616,0,0,1-7.063,2.908Zm0-4.432H78.779a5.349,5.349,0,0,0,3.933-1.607,5.349,5.349,0,0,0,1.607-3.933,5.35,5.35,0,0,0-1.607-3.933,5.349,5.349,0,0,0-3.933-1.606H75.455v-4.432a10.679,10.679,0,0,0-3.241-7.839,10.678,10.678,0,0,0-7.839-3.241,10.678,10.678,0,0,0-7.839,3.241,10.679,10.679,0,0,0-3.241,7.839H52.188a7.473,7.473,0,0,0-5.484,2.271,7.473,7.473,0,0,0-2.271,5.484,7.473,7.473,0,0,0,2.271,5.484A7.473,7.473,0,0,0,52.188-768.977ZM64.375-782.273Z" transform="translate(-40 800)" fill="#c8ff88"/>
</svg>
