<svg xmlns="http://www.w3.org/2000/svg" xmlns:xlink="http://www.w3.org/1999/xlink" width="270.833" height="62.384" viewBox="0 0 270.833 62.384">
  <defs>
    <linearGradient id="linear-gradient" x1="0.769" y1="3.041" x2="0.128" y2="0.118" gradientUnits="objectBoundingBox">
      <stop offset="0" stop-color="#50ffd2"/>
      <stop offset="1" stop-color="#0064ff"/>
    </linearGradient>
    <linearGradient id="linear-gradient-2" x1="0.597" y1="0.207" x2="0.228" y2="0.774" gradientUnits="objectBoundingBox">
      <stop offset="0.2" stop-color="#09b9ec" stop-opacity="0"/>
      <stop offset="0.29" stop-color="#09b9ec" stop-opacity="0.031"/>
      <stop offset="0.5" stop-color="#09b9ec" stop-opacity="0.2"/>
      <stop offset="0.79" stop-color="#09b9ec" stop-opacity="0.741"/>
      <stop offset="1" stop-color="#09b9ec"/>
    </linearGradient>
    <linearGradient id="linear-gradient-3" x1="0.929" y1="1.196" x2="0.321" y2="-1.188" xlink:href="#linear-gradient"/>
    <linearGradient id="linear-gradient-4" x1="-0.118" y1="-0.699" x2="1.099" y2="-0.087" gradientUnits="objectBoundingBox">
      <stop offset="0.08" stop-color="#0871fe"/>
      <stop offset="0.75" stop-color="#0871fe" stop-opacity="0.071"/>
      <stop offset="0.88" stop-color="#0871fe" stop-opacity="0"/>
    </linearGradient>
    <linearGradient id="linear-gradient-5" x1="0.05" y1="-0.366" x2="0.821" y2="0.771" gradientUnits="objectBoundingBox">
      <stop offset="0.14" stop-color="#193a3e" stop-opacity="0"/>
      <stop offset="0.32" stop-color="#37cee0" stop-opacity="0.071"/>
      <stop offset="0.85" stop-color="#37cee0" stop-opacity="0.761"/>
      <stop offset="0.91" stop-color="#33c7e2"/>
    </linearGradient>
  </defs>
  <g id="ibm-logo" transform="translate(0 0.001)">
    <path id="Path_54" data-name="Path 54" d="M227.99,12.591a8.612,8.612,0,0,0-2.546.162.921.921,0,0,0-.163.831,1.559,1.559,0,0,1,0,.289v9.5a.884.884,0,0,0,0,.217.614.614,0,0,1-.253.722,5.146,5.146,0,0,0-2.925-3.2,7.1,7.1,0,0,0-9.028,3.124,12.043,12.043,0,0,0-1.264,4.153,16.647,16.647,0,0,0,1.264,9.931,6.915,6.915,0,0,0,10.472,2.167,7.385,7.385,0,0,0,1.571-2.4,6.354,6.354,0,0,1,.108,1.625,4.713,4.713,0,0,0,.162,1.679.885.885,0,0,0,.849.2h4.893V12.519a11.935,11.935,0,0,0-1.39,0A14.174,14.174,0,0,1,227.99,12.591Zm-6.7,24.646a3.3,3.3,0,0,0,3.972-3.611V28.065a2.456,2.456,0,0,0-1.174-2.022,3.9,3.9,0,0,0-6.319,2.474,18.525,18.525,0,0,0,0,5.651A3.611,3.611,0,0,0,221.291,37.237Zm-85.619-9.262v1.137a14.3,14.3,0,0,0,.181,2.744,5.633,5.633,0,0,0,10.563,1.806c.451-.849.74-.939,1.5-.451a30.821,30.821,0,0,0,3.16,1.806c.542.271.542.542.271,1.083a11.212,11.212,0,0,1-12.3,5.706,10.274,10.274,0,0,1-8.685-7.222,19.337,19.337,0,0,1,.542-14.354,11,11,0,0,1,10.833-6.374,10.183,10.183,0,0,1,9.407,5.417c.361.632.451,1.029-.415,1.39a22.034,22.034,0,0,0-2.347,1.21l-1.21.65c-.325.163-.614.325-.831-.217-1.029-3.069-4.062-3.611-6.59-2.979a5.579,5.579,0,0,0-4.062,5.814c-.072.9-.018,1.787-.018,2.835Zm40.48-7.349a8.7,8.7,0,0,1,8.45,6.139,13.758,13.758,0,0,1,.668,4.514c-.126,3.611-.9,6.951-4.153,9.172a9.714,9.714,0,0,1-3.611,1.5,9.551,9.551,0,0,1-11.212-7.457,14.9,14.9,0,0,1,.542-8.143,8.775,8.775,0,0,1,9.317-5.724Zm-.542,16.846a3.34,3.34,0,0,0,3.611-2.889,13.037,13.037,0,0,0,.126-2.618V30.52a12.477,12.477,0,0,0-.126-2.365,3.611,3.611,0,0,0-6.969-.09,25.82,25.82,0,0,0,0,6.464,3.178,3.178,0,0,0,3.358,2.889Zm25.928.758a6.374,6.374,0,0,1-3.936,3.485,6.067,6.067,0,0,1-8-4.658,14.444,14.444,0,0,1-.361-3.394v-11.7c0-.722,0-1.029.957-.993a27.858,27.858,0,0,0,3.882,0c.758,0,.993.235.939.993V32.579a12.243,12.243,0,0,0,0,1.408c.09,2.112,1.174,3.34,3.069,3.25s3.611-1.174,3.521-3.431,0-4.514,0-6.771V22.016c0-.867.217-1.083,1.029-1.047a36.435,36.435,0,0,0,3.972,0c.578,0,.722.181.722.722V40.722c0,.632-.235.758-.812.758h-4.117c-.578,0-.849-.181-.812-.758V40.6c-.018-.812-.054-1.589-.054-2.419ZM161.347,27.686V13.711c0-.867-.271-1.083-1.047-1.047a24.827,24.827,0,0,1-3.611,0c-.939-.09-1.119.271-1.119,1.174v21.45a12.64,12.64,0,0,0,.235,2.347,4.387,4.387,0,0,0,3.611,3.7,10.436,10.436,0,0,0,2.112.181c2.4.09,2.4.09,2.4-2.347v-.6c.217-1.174-.235-1.806-1.5-1.481-.849.126-1.119-.181-1.119-1.083.054-2.744.036-5.6.036-8.378Zm-55.34,3.449q-1.047,1.806-2.112,3.792c-1.806-3.232-3.5-6.392-5.272-9.533L94.9,18.712v21.54c0,.867,0,1.264-1.119,1.228h-.253c-1.806,0-1.806,0-1.806-2.149V15.318c0-.867.181-1.137,1.083-1.137h.162c3.051,0,3.069,0,4.586,2.835l6.229,11.664v.09c.307,0,.379-.235.451-.433q0-.1,0-.2l7.024-12.928c.415-.722.813-1.174,1.806-1.029a5.416,5.416,0,0,0,1.192,0c.686,0,1.354-.144,1.806.253s.361,1.246.253,2.022a8.232,8.232,0,0,0,0,.921V40.2c0,.993-.181,1.354-1.282,1.3H114.8c-.849,0-1.282,0-1.5-.289s-.253-.722-.253-1.7V18.82l-.217-.144c-2.257,4.189-4.478,8.287-6.825,12.458Zm-24.736-3.7c0-.09-.144-.108-.253-.126s-.307,0-.2-.343a5.417,5.417,0,0,0,2.618-1.806,7.222,7.222,0,0,0-1.5-9.714,8.54,8.54,0,0,0-4.821-1.3H67.17c-.849,0-1.029.271-1.029,1.083v25.26a.4.4,0,0,1,0,.144c0,.433,0,.813.686.813h4.117c2.762,0,5.525,0,8.269-.126a6.9,6.9,0,0,0,6.229-6.374A6.247,6.247,0,0,0,81.271,27.433Zm-11.79-9.587c0-.487.181-.668.668-.668H77.7a3.358,3.358,0,0,1,3.431,3.214,14.446,14.446,0,0,1,0,2.347,3.467,3.467,0,0,1-3.394,3.16H70.239c-.542,0-.758-.126-.758-.722ZM82.12,34.836a3.611,3.611,0,0,1-3.611,3.611h-8.36c-.542,0-.668-.235-.632-.722V29.455c0-.6.144-.812.776-.812h7.674a3.864,3.864,0,0,1,4.153,3.972c0,.867,0,1.535-.036,2.221ZM56.427,37.815V17.827c0-.722.144-.993.9-.921a10.725,10.725,0,0,0,1.318,0H59.6c.506,0,.722-.126.686-.686a3.611,3.611,0,0,1,0-1.083c.126-.849-.235-1.029-1.047-1.029h-8.45c-1.174,0-1.444.217-1.444,1.39s.307,1.553,1.444,1.354h.794a4.261,4.261,0,0,0,.794.163c.632,0,.758.235.758.831V37.869c0,.668-.126.939-.849.9a7.078,7.078,0,0,0-1.065,0,5.272,5.272,0,0,1-1.065,0c-.758,0-.939.271-.849.957a3.069,3.069,0,0,1,0,.813c-.144.849.271,1.029,1.029,1.029,2.889,0,5.8-.09,8.631,0,1.083,0,1.264-.271,1.318-1.3s-.325-1.679-1.535-1.5a4.585,4.585,0,0,1-.7,0h-.7c-.74.036-.921-.235-.921-.957Z" transform="translate(39.701 10.069)" fill="#fff" fill-rule="evenodd"/>
    <path id="Path_55" data-name="Path 55" d="M8.6,24.881a1.553,1.553,0,0,1-.668-.181l-6.3-3.611a1.318,1.318,0,0,1-.578-1.679,1.354,1.354,0,0,1,1.806-.794l.217.108L9.39,22.336a1.372,1.372,0,0,1,.56,1.806,1.318,1.318,0,0,1-1.354.74ZM19.519,14.048a1.336,1.336,0,0,1-1.156-.668l-3.611-6.3a1.426,1.426,0,0,1,.271-1.806,1.3,1.3,0,0,1,1.806.144,1.173,1.173,0,0,1,.162.2l3.611,6.3a1.408,1.408,0,0,1-.325,1.806,1.372,1.372,0,0,1-.758.271ZM33.025,8.631V1.409A1.408,1.408,0,0,1,34.307,0,1.318,1.318,0,0,1,35.7,1.283V8.7a1.336,1.336,0,0,1-1.354,1.354A1.535,1.535,0,0,1,33.025,8.6Zm16.25,5.417a1.354,1.354,0,0,1-.74-.217,1.408,1.408,0,0,1-.343-1.806l3.611-6.3a1.354,1.354,0,0,1,1.806-.487.361.361,0,0,1,.181.144,1.463,1.463,0,0,1,.271,1.806l-3.611,6.3a1.5,1.5,0,0,1-1.21.506ZM60.108,24.881a1.354,1.354,0,0,1-1.192-.7,1.372,1.372,0,0,1,.56-1.806l6.229-3.611a1.408,1.408,0,0,1,1.806.271,1.318,1.318,0,0,1-.162,1.806.988.988,0,0,1-.181.144l-6.392,3.611a1.138,1.138,0,0,1-.65.289Z" transform="translate(0.758 0)" fill="url(#linear-gradient)"/>
    <path id="Path_56" data-name="Path 56" d="M13.117,48.78a23.924,23.924,0,1,1,35.75-31.724c.415.542.794,1.065,1.174,1.625L47.82,20.144a16.069,16.069,0,0,0-1.047-1.426,19.013,19.013,0,0,0-1.679-1.824A21.287,21.287,0,0,0,14.977,46.9Z" transform="translate(5.101 6.579)" fill="url(#linear-gradient-2)"/>
    <path id="Path_57" data-name="Path 57" d="M52.2,48.164H15.347A15.437,15.437,0,0,1,0,32.582H2.673a12.819,12.819,0,0,0,12.639,12.91H52.163a15.654,15.654,0,0,0,15.654-15.6,15.835,15.835,0,0,0-3.972-10.436l1.986-1.806A18.236,18.236,0,0,1,52.2,48.092Z" transform="translate(0 14.219)" fill="url(#linear-gradient-3)"/>
    <path id="Path_58" data-name="Path 58" d="M2.672,32.831,0,32.687A15.474,15.474,0,0,1,12.874,17.52l.451,2.672A12.874,12.874,0,0,0,2.672,32.831Z" transform="translate(0 14.114)" fill="url(#linear-gradient-4)"/>
    <path id="Path_59" data-name="Path 59" d="M21.424,32.49H18.77a18.272,18.272,0,0,1,18.471-18.2,18.507,18.507,0,0,1,13.524,6.139l-2,1.806A15.654,15.654,0,0,0,26.7,20.917,16.015,16.015,0,0,0,21.424,32.49Z" transform="translate(15.121 11.512)" fill="url(#linear-gradient-5)"/>
  </g>
</svg>
