<svg xmlns="http://www.w3.org/2000/svg" width="174.717" height="157.246" viewBox="0 0 174.717 157.246">
  <g id="Group_78" data-name="Group 78" transform="translate(-1353.641 -752.377)">
    <path id="Path_49" data-name="Path 49" d="M21.97,20.191a9.2,9.2,0,1,1-9.2-9.25A9.223,9.223,0,0,1,21.97,20.191Z" transform="translate(1363.857 810.806)" fill="#67c000"/>
    <path id="Path_50" data-name="Path 50" d="M21.97,26.543a9.2,9.2,0,1,1-9.2-9.25A9.222,9.222,0,0,1,21.97,26.543Z" transform="translate(1363.857 859.952)" fill="#67c000"/>
    <path id="Path_51" data-name="Path 51" d="M21.97,13.838a9.2,9.2,0,1,1-9.2-9.25A9.223,9.223,0,0,1,21.97,13.838Z" transform="translate(1363.857 761.661)" fill="#67c000"/>
    <g id="Group_77" data-name="Group 77" transform="translate(1353.641 752.377)">
      <path id="Path_52" data-name="Path 52" d="M15.239,15.871c2.372-.162,5.4-.165,9.75-.165H153.728c4.348,0,7.378,0,9.75.165a14.748,14.748,0,0,1,4.724.891,13.833,13.833,0,0,1,7.465,7.508,14.993,14.993,0,0,1,.886,4.752c.162,2.386.164,5.434.164,9.807s0,7.422-.164,9.808a15,15,0,0,1-.886,4.752A13.833,13.833,0,0,1,168.2,60.9a14.748,14.748,0,0,1-4.724.891c-2.372.162-5.4.165-9.75.165H24.989c-4.348,0-7.378,0-9.75-.165a14.749,14.749,0,0,1-4.724-.891A13.835,13.835,0,0,1,3.05,53.39a14.989,14.989,0,0,1-.886-4.752C2,46.252,2,43.2,2,38.83s0-7.421.164-9.807a14.983,14.983,0,0,1,.886-4.752,13.835,13.835,0,0,1,7.465-7.508A14.748,14.748,0,0,1,15.239,15.871Zm9.75,32.209a9.25,9.25,0,1,0-9.2-9.25A9.223,9.223,0,0,0,24.989,48.08Z" transform="translate(-2 95.291)" fill="#c8ff88" fill-rule="evenodd"/>
      <path id="Path_53" data-name="Path 53" d="M24.989,49.249c-4.348,0-7.378,0-9.75-.165a14.747,14.747,0,0,1-4.724-.891A13.834,13.834,0,0,1,3.05,40.684a14.984,14.984,0,0,1-.886-4.752C2,33.546,2,30.5,2,26.124s0-7.421.164-9.807a14.985,14.985,0,0,1,.886-4.752,13.834,13.834,0,0,1,7.465-7.509,14.745,14.745,0,0,1,4.724-.891C17.611,3,20.642,3,24.989,3H153.728c4.348,0,7.378,0,9.75.165a14.744,14.744,0,0,1,4.724.891,13.832,13.832,0,0,1,7.465,7.509,15,15,0,0,1,.886,4.752c.162,2.386.164,5.434.164,9.807s0,7.421-.164,9.807a14.994,14.994,0,0,1-.886,4.752,13.832,13.832,0,0,1-7.465,7.509,14.747,14.747,0,0,1-4.724.891c-2.372.163-5.4.165-9.75.165Zm0,9.25c-4.348,0-7.378,0-9.75.165a14.745,14.745,0,0,0-4.724.891A13.834,13.834,0,0,0,3.05,67.064a14.983,14.983,0,0,0-.886,4.752C2,74.2,2,77.25,2,81.623s0,7.421.164,9.807a14.983,14.983,0,0,0,.886,4.752,13.834,13.834,0,0,0,7.465,7.509,14.754,14.754,0,0,0,4.724.89c2.372.163,5.4.166,9.75.166H153.728c4.348,0,7.378,0,9.75-.166a14.754,14.754,0,0,0,4.724-.89,13.832,13.832,0,0,0,7.465-7.509,14.993,14.993,0,0,0,.886-4.752c.162-2.386.164-5.434.164-9.807s0-7.421-.164-9.807a14.993,14.993,0,0,0-.886-4.752,13.832,13.832,0,0,0-7.465-7.509,14.744,14.744,0,0,0-4.724-.891c-2.372-.163-5.4-.165-9.75-.165Zm9.2,23.124a9.2,9.2,0,1,1-9.2-9.25A9.222,9.222,0,0,1,34.185,81.623Zm-9.2-46.249a9.25,9.25,0,1,0-9.2-9.25A9.223,9.223,0,0,0,24.989,35.374Z" transform="translate(-2 -3)" fill="#c8ff88" fill-rule="evenodd"/>
    </g>
  </g>
</svg>
